<svg width="200" height="200" viewBox="0 0 200 200" fill="none" xmlns="http://www.w3.org/2000/svg">
<rect width="200" height="200" fill="black"/>
<path d="M34.24 147V98.872H14.912V84.408H34.24V73.784C34.24 67.64 36.288 62.7333 40.384 59.064C44.48 55.3947 49.8987 53.56 56.64 53.56H77.248V67.64H57.024C54.976 67.64 53.312 68.2373 52.032 69.432C50.8373 70.5413 50.24 72.0773 50.24 74.04V84.408H77.248V98.872H50.24V147H34.24Z" fill="white"/>
<path d="M64.256 147V133.8H67.088V136.32H67.832L66.944 137.856C66.944 136.432 67.264 135.36 67.904 134.64C68.544 133.92 69.488 133.56 70.736 133.56C72.16 133.56 73.28 134 74.096 134.88C74.912 135.76 75.32 136.976 75.32 138.528V139.488H72.176V138.744C72.176 137.896 71.952 137.24 71.504 136.776C71.072 136.312 70.472 136.08 69.704 136.08C68.92 136.08 68.312 136.312 67.88 136.776C67.464 137.24 67.256 137.896 67.256 138.744V147H64.256ZM83.6146 147.24C82.4946 147.24 81.5186 147.024 80.6866 146.592C79.8546 146.16 79.2066 145.56 78.7426 144.792C78.2946 144.008 78.0706 143.096 78.0706 142.056V138.744C78.0706 137.704 78.2946 136.8 78.7426 136.032C79.2066 135.248 79.8546 134.64 80.6866 134.208C81.5186 133.776 82.4946 133.56 83.6146 133.56C84.7186 133.56 85.6786 133.776 86.4946 134.208C87.3266 134.64 87.9666 135.248 88.4146 136.032C88.8786 136.8 89.1106 137.704 89.1106 138.744V141.12H80.9746V142.056C80.9746 142.984 81.1986 143.688 81.6466 144.168C82.0946 144.632 82.7586 144.864 83.6386 144.864C84.3106 144.864 84.8546 144.752 85.2706 144.528C85.6866 144.288 85.9506 143.944 86.0626 143.496H89.0146C88.7906 144.632 88.1826 145.544 87.1906 146.232C86.2146 146.904 85.0226 147.24 83.6146 147.24ZM86.2066 139.44V138.72C86.2066 137.808 85.9906 137.112 85.5586 136.632C85.1266 136.136 84.4786 135.888 83.6146 135.888C82.7506 135.888 82.0946 136.136 81.6466 136.632C81.1986 137.128 80.9746 137.832 80.9746 138.744V139.248L86.4226 139.2L86.2066 139.44ZM98.0053 147.24C96.8853 147.24 95.9093 147.024 95.0773 146.592C94.2453 146.16 93.5973 145.56 93.1333 144.792C92.6853 144.008 92.4613 143.096 92.4613 142.056V138.744C92.4613 137.704 92.6853 136.8 93.1333 136.032C93.5973 135.248 94.2453 134.64 95.0773 134.208C95.9093 133.776 96.8853 133.56 98.0053 133.56C99.1093 133.56 100.069 133.776 100.885 134.208C101.717 134.64 102.357 135.248 102.805 136.032C103.269 136.8 103.501 137.704 103.501 138.744V141.12H95.3653V142.056C95.3653 142.984 95.5893 143.688 96.0373 144.168C96.4853 144.632 97.1493 144.864 98.0293 144.864C98.7013 144.864 99.2453 144.752 99.6613 144.528C100.077 144.288 100.341 143.944 100.453 143.496H103.405C103.181 144.632 102.573 145.544 101.581 146.232C100.605 146.904 99.4133 147.24 98.0053 147.24ZM100.597 139.44V138.72C100.597 137.808 100.381 137.112 99.9493 136.632C99.5173 136.136 98.8693 135.888 98.0053 135.888C97.1413 135.888 96.4853 136.136 96.0373 136.632C95.5893 137.128 95.3653 137.832 95.3653 138.744V139.248L100.813 139.2L100.597 139.44ZM114.388 147C113.524 147 112.764 146.824 112.108 146.472C111.468 146.12 110.964 145.624 110.596 144.984C110.228 144.328 110.044 143.576 110.044 142.728V132.192H105.82V129.48H113.044V142.728C113.044 143.208 113.18 143.592 113.452 143.88C113.74 144.152 114.124 144.288 114.604 144.288H118.588V147H114.388ZM125.299 147.24C123.939 147.24 122.867 146.88 122.083 146.16C121.299 145.44 120.907 144.472 120.907 143.256C120.907 141.96 121.339 140.96 122.203 140.256C123.067 139.552 124.291 139.2 125.875 139.2H129.163V138.072C129.163 137.432 128.955 136.936 128.539 136.584C128.123 136.216 127.555 136.032 126.835 136.032C126.179 136.032 125.635 136.176 125.203 136.464C124.771 136.752 124.515 137.144 124.435 137.64H121.507C121.651 136.392 122.211 135.4 123.187 134.664C124.163 133.928 125.411 133.56 126.931 133.56C128.547 133.56 129.819 133.968 130.747 134.784C131.691 135.584 132.163 136.672 132.163 138.048V147H129.259V144.696H128.779L129.259 144.048C129.259 145.024 128.899 145.8 128.179 146.376C127.459 146.952 126.499 147.24 125.299 147.24ZM126.283 144.984C127.131 144.984 127.819 144.768 128.347 144.336C128.891 143.904 129.163 143.344 129.163 142.656V141.048H125.923C125.315 141.048 124.827 141.224 124.459 141.576C124.091 141.928 123.907 142.392 123.907 142.968C123.907 143.592 124.115 144.088 124.531 144.456C124.963 144.808 125.547 144.984 126.283 144.984ZM135.801 147V133.8H138.729V136.32H139.545L138.729 137.016C138.729 135.928 139.041 135.08 139.665 134.472C140.305 133.864 141.177 133.56 142.281 133.56C143.577 133.56 144.609 133.992 145.377 134.856C146.161 135.72 146.553 136.88 146.553 138.336V147H143.553V138.648C143.553 137.848 143.345 137.232 142.929 136.8C142.513 136.368 141.929 136.152 141.177 136.152C140.441 136.152 139.857 136.376 139.425 136.824C139.009 137.272 138.801 137.912 138.801 138.744V147H135.801ZM155.616 147.24C154.496 147.24 153.512 147.032 152.664 146.616C151.832 146.184 151.184 145.584 150.72 144.816C150.256 144.032 150.024 143.112 150.024 142.056V138.744C150.024 137.672 150.256 136.752 150.72 135.984C151.184 135.216 151.832 134.624 152.664 134.208C153.512 133.776 154.496 133.56 155.616 133.56C157.28 133.56 158.608 133.992 159.6 134.856C160.592 135.704 161.112 136.864 161.16 138.336H158.16C158.112 137.648 157.864 137.12 157.416 136.752C156.984 136.368 156.384 136.176 155.616 136.176C154.816 136.176 154.184 136.4 153.72 136.848C153.256 137.28 153.024 137.904 153.024 138.72V142.056C153.024 142.872 153.256 143.504 153.72 143.952C154.184 144.4 154.816 144.624 155.616 144.624C156.384 144.624 156.984 144.44 157.416 144.072C157.864 143.688 158.112 143.152 158.16 142.464H161.16C161.112 143.936 160.592 145.104 159.6 145.968C158.608 146.816 157.28 147.24 155.616 147.24ZM169.958 147.24C168.838 147.24 167.862 147.024 167.03 146.592C166.198 146.16 165.55 145.56 165.086 144.792C164.638 144.008 164.414 143.096 164.414 142.056V138.744C164.414 137.704 164.638 136.8 165.086 136.032C165.55 135.248 166.198 134.64 167.03 134.208C167.862 133.776 168.838 133.56 169.958 133.56C171.062 133.56 172.022 133.776 172.838 134.208C173.67 134.64 174.31 135.248 174.758 136.032C175.222 136.8 175.454 137.704 175.454 138.744V141.12H167.318V142.056C167.318 142.984 167.542 143.688 167.99 144.168C168.438 144.632 169.102 144.864 169.982 144.864C170.654 144.864 171.198 144.752 171.614 144.528C172.03 144.288 172.294 143.944 172.406 143.496H175.358C175.134 144.632 174.526 145.544 173.534 146.232C172.558 146.904 171.366 147.24 169.958 147.24ZM172.55 139.44V138.72C172.55 137.808 172.334 137.112 171.902 136.632C171.47 136.136 170.822 135.888 169.958 135.888C169.094 135.888 168.438 136.136 167.99 136.632C167.542 137.128 167.318 137.832 167.318 138.744V139.248L172.766 139.2L172.55 139.44ZM179.381 147V133.8H182.213V136.32H182.957L182.069 137.856C182.069 136.432 182.389 135.36 183.029 134.64C183.669 133.92 184.613 133.56 185.861 133.56C187.285 133.56 188.405 134 189.221 134.88C190.037 135.76 190.445 136.976 190.445 138.528V139.488H187.301V138.744C187.301 137.896 187.077 137.24 186.629 136.776C186.197 136.312 185.597 136.08 184.829 136.08C184.045 136.08 183.437 136.312 183.005 136.776C182.589 137.24 182.381 137.896 182.381 138.744V147H179.381Z" fill="white"/>
</svg>
