<svg width="235" height="235" viewBox="0 0 235 235" fill="none" xmlns="http://www.w3.org/2000/svg">
<path fill-rule="evenodd" clip-rule="evenodd" d="M154 98.86L128.73 164.55C127.977 166.512 126.781 168.273 125.236 169.697C123.691 171.121 121.838 172.169 119.821 172.76C117.805 173.351 115.68 173.469 113.61 173.105C111.541 172.741 109.583 171.904 107.89 170.66C106.817 169.802 105.935 168.729 105.3 167.51L99 156.4V141.7C98.9974 141.28 98.912 140.864 98.7488 140.477C98.5855 140.09 98.3476 139.738 98.0486 139.443C97.7496 139.148 97.3954 138.914 97.0061 138.756C96.6169 138.598 96.2002 138.517 95.78 138.52L82.16 138.58L68.97 131.1C67.75 130.467 66.6768 129.585 65.82 128.51C64.5757 126.817 63.7385 124.859 63.3735 122.789C63.0086 120.72 63.1257 118.594 63.7158 116.577C64.3059 114.56 65.3531 112.706 66.7759 111.16C68.1988 109.613 69.9591 108.416 71.92 107.66L137.56 82.4C139.858 81.5227 142.362 81.3297 144.767 81.8442C147.173 82.3587 149.379 83.5587 151.117 85.2994C152.856 87.04 154.053 89.2468 154.565 91.6532C155.076 94.0596 154.88 96.5627 154 98.86Z" fill="#1CD265"/>
<path d="M117.44 28.14C129.247 28.0151 140.962 30.2327 151.907 34.6647C162.851 39.0966 172.808 45.6549 181.202 53.9601C189.595 62.2652 196.258 72.1523 200.806 83.0494C205.354 93.9464 207.695 105.637 207.695 117.445C207.695 129.253 205.354 140.944 200.806 151.841C196.258 162.738 189.595 172.625 181.202 180.93C172.808 189.235 162.851 195.793 151.907 200.225C140.962 204.657 129.247 206.875 117.44 206.75H28.13V117.45C28.1565 93.7716 37.5744 71.0707 54.3175 54.3275C71.0607 37.5844 93.7616 28.1665 117.44 28.14ZM117.44 0C102.017 -5.59133e-08 86.7445 3.03801 72.4953 8.94054C58.2462 14.8431 45.2993 23.4945 34.3938 34.4009C23.4884 45.3073 14.838 58.255 8.93672 72.5046C3.0354 86.7542 -0.00131286 102.027 4.25788e-07 117.45V234.89H117.44C148.588 234.89 178.46 222.517 200.486 200.493C222.512 178.469 234.887 148.598 234.89 117.45C234.89 86.3003 222.516 56.4265 200.49 34.4003C178.464 12.3742 148.59 0 117.44 0Z" fill="#1CD265"/>
</svg>
