<svg width="250" height="299" viewBox="0 0 250 299" fill="none" xmlns="http://www.w3.org/2000/svg">
<path d="M40.9648 81.9297C18.6618 81.9297 0 63.2679 0 40.9649C0 18.6618 18.6618 0 40.9648 0C63.2679 0 81.9297 18.6618 81.9297 40.9649C81.9297 63.2679 63.2679 81.9297 40.9648 81.9297Z" fill="#0C0429"/>
<path d="M209.035 59.9031C200.263 59.9031 192.054 63.3533 185.322 66.1827C174.939 70.5469 168.07 73.4339 168.07 59.9031C168.07 37.6 186.732 18.9382 209.035 18.9382C231.338 18.9382 250 37.6 250 59.9031C250 73.4339 243.131 70.5469 232.748 66.1827C226.016 63.3533 217.807 59.9031 209.035 59.9031Z" fill="#0C0429"/>
<path d="M245.004 177.807H245.06C245.06 214.781 229.077 247.724 203.33 269.8C182.485 287.675 155.24 298.426 124.897 298.426C94.5539 298.426 67.3087 287.675 46.4632 269.8C20.7533 247.755 4.77823 214.874 4.73323 177.964V155.051C4.73323 136.748 19.5709 121.91 37.874 121.91C56.1772 121.91 71.0149 136.748 71.0149 155.051V177.807H71.1873C71.1873 207.393 92.5801 230.151 124.897 230.151C156.696 230.151 177.919 208.115 178.59 179.222L178.668 131.351C178.698 113.055 193.539 98.2379 211.836 98.2379C230.154 98.2378 245.004 113.088 245.004 131.406V177.807Z" fill="#0C0429"/>
</svg>
